<svg width="252" height="161" viewBox="0 0 252 161" fill="none" xmlns="http://www.w3.org/2000/svg">
<rect width="251.4" height="160.814" fill="#F7F7F7"/>
<rect x="14" y="16.7515" width="223.746" height="127.311" fill="white"/>
<path d="M97.8828 50.1104H92.9258L91.8887 53.0898H89.5771L94.4111 40.293H96.4062L101.249 53.0898H98.9287L97.8828 50.1104ZM93.5498 48.3174H97.2588L95.4043 43.0088L93.5498 48.3174ZM102.102 48.2646C102.102 46.7998 102.441 45.625 103.121 44.7402C103.801 43.8496 104.712 43.4043 105.854 43.4043C106.862 43.4043 107.677 43.7559 108.298 44.459V39.5898H110.434V53.0898H108.5L108.395 52.1055C107.756 52.8789 106.903 53.2656 105.837 53.2656C104.724 53.2656 103.821 52.8174 103.13 51.9209C102.444 51.0244 102.102 49.8057 102.102 48.2646ZM104.237 48.4492C104.237 49.416 104.422 50.1719 104.791 50.7168C105.166 51.2559 105.696 51.5254 106.382 51.5254C107.255 51.5254 107.894 51.1357 108.298 50.3564V46.2959C107.905 45.5342 107.272 45.1533 106.399 45.1533C105.708 45.1533 105.175 45.4287 104.8 45.9795C104.425 46.5244 104.237 47.3477 104.237 48.4492ZM112.262 48.2646C112.262 46.7998 112.602 45.625 113.281 44.7402C113.961 43.8496 114.872 43.4043 116.015 43.4043C117.022 43.4043 117.837 43.7559 118.458 44.459V39.5898H120.594V53.0898H118.66L118.555 52.1055C117.916 52.8789 117.063 53.2656 115.997 53.2656C114.884 53.2656 113.981 52.8174 113.29 51.9209C112.604 51.0244 112.262 49.8057 112.262 48.2646ZM114.397 48.4492C114.397 49.416 114.582 50.1719 114.951 50.7168C115.326 51.2559 115.856 51.5254 116.542 51.5254C117.415 51.5254 118.054 51.1357 118.458 50.3564V46.2959C118.065 45.5342 117.433 45.1533 116.56 45.1533C115.868 45.1533 115.335 45.4287 114.96 45.9795C114.585 46.5244 114.397 47.3477 114.397 48.4492ZM136.229 42.0859H132.239V53.0898H130.033V42.0859H126.078V40.293H136.229V42.0859ZM141.916 53.0898C141.822 52.9082 141.74 52.6123 141.67 52.2021C140.99 52.9111 140.158 53.2656 139.174 53.2656C138.219 53.2656 137.439 52.9932 136.836 52.4482C136.232 51.9033 135.931 51.2295 135.931 50.4268C135.931 49.4131 136.306 48.6367 137.056 48.0977C137.812 47.5527 138.89 47.2803 140.29 47.2803H141.6V46.6562C141.6 46.1641 141.462 45.7715 141.187 45.4785C140.911 45.1797 140.492 45.0303 139.93 45.0303C139.443 45.0303 139.045 45.1533 138.734 45.3994C138.424 45.6396 138.269 45.9473 138.269 46.3223H136.133C136.133 45.8008 136.306 45.3145 136.651 44.8633C136.997 44.4062 137.466 44.0488 138.058 43.791C138.655 43.5332 139.32 43.4043 140.053 43.4043C141.166 43.4043 142.054 43.6855 142.716 44.248C143.378 44.8047 143.718 45.5898 143.735 46.6035V50.8926C143.735 51.748 143.855 52.4307 144.096 52.9404V53.0898H141.916ZM139.569 51.5518C139.991 51.5518 140.387 51.4492 140.756 51.2441C141.131 51.0391 141.412 50.7637 141.6 50.418V48.625H140.448C139.657 48.625 139.062 48.7627 138.664 49.0381C138.266 49.3135 138.066 49.7031 138.066 50.207C138.066 50.6172 138.201 50.9453 138.471 51.1914C138.746 51.4316 139.112 51.5518 139.569 51.5518ZM151.303 50.5059C151.303 50.125 151.145 49.835 150.828 49.6357C150.518 49.4365 149.999 49.2607 149.272 49.1084C148.546 48.9561 147.939 48.7627 147.453 48.5283C146.387 48.0127 145.854 47.2656 145.854 46.2871C145.854 45.4668 146.199 44.7812 146.891 44.2305C147.582 43.6797 148.461 43.4043 149.527 43.4043C150.664 43.4043 151.581 43.6855 152.278 44.248C152.981 44.8105 153.333 45.54 153.333 46.4365H151.197C151.197 46.0264 151.045 45.6865 150.74 45.417C150.436 45.1416 150.031 45.0039 149.527 45.0039C149.059 45.0039 148.675 45.1123 148.376 45.3291C148.083 45.5459 147.937 45.8359 147.937 46.1992C147.937 46.5273 148.074 46.7822 148.35 46.9639C148.625 47.1455 149.182 47.3301 150.02 47.5176C150.857 47.6992 151.514 47.9189 151.988 48.1768C152.469 48.4287 152.823 48.7334 153.052 49.0908C153.286 49.4482 153.403 49.8818 153.403 50.3916C153.403 51.2471 153.049 51.9414 152.34 52.4746C151.631 53.002 150.702 53.2656 149.554 53.2656C148.774 53.2656 148.08 53.125 147.471 52.8438C146.861 52.5625 146.387 52.1758 146.047 51.6836C145.707 51.1914 145.537 50.6611 145.537 50.0928H147.611C147.641 50.5967 147.831 50.9863 148.183 51.2617C148.534 51.5312 149 51.666 149.58 51.666C150.143 51.666 150.57 51.5605 150.863 51.3496C151.156 51.1328 151.303 50.8516 151.303 50.5059ZM158.36 49.0117L157.411 49.9873V53.0898H155.275V39.5898H157.411V47.377L158.079 46.542L160.707 43.5801H163.273L159.74 47.5439L163.651 53.0898H161.182L158.36 49.0117Z" fill="#CFCFCF"/>
<g clip-path="url(#clip0)">
<path d="M168.366 125.632L168.755 117.383C168.755 115.827 167.489 114.559 165.919 114.559C165.422 114.559 164.955 114.688 164.549 114.918C164.366 113.537 163.179 112.469 161.738 112.469C161.242 112.47 160.774 112.598 160.368 112.825C160.183 111.447 158.997 110.377 157.557 110.378C157.07 110.378 156.612 110.502 156.212 110.72L156.212 107.016C156.212 105.46 154.946 104.192 153.376 104.192C151.82 104.191 150.553 105.458 150.553 107.016L150.553 121.248L145.67 117.69C144.366 116.712 142.515 116.843 141.362 117.996C140.498 118.86 140.498 120.267 141.362 121.132L151.218 130.988C152.753 132.523 154.795 133.369 156.967 133.369L160.255 133.369C162.424 133.37 164.463 132.524 165.997 130.991C167.429 129.559 168.27 127.655 168.366 125.632ZM160.255 131.891L156.967 131.891C155.19 131.891 153.519 131.199 152.263 129.942L142.407 120.086C142.119 119.798 142.119 119.33 142.407 119.041C143.043 118.406 144.064 118.334 144.791 118.879L150.857 123.297C151.082 123.462 151.379 123.485 151.627 123.359C151.874 123.234 152.031 122.979 152.031 122.701L152.031 107.016C152.031 106.273 152.635 105.669 153.389 105.668C153.76 105.669 154.096 105.82 154.34 106.063C154.583 106.307 154.734 106.644 154.734 107.016L154.734 117.475C154.734 117.882 155.065 118.214 155.473 118.214C155.677 118.212 155.862 118.13 155.996 117.996C156.129 117.862 156.212 117.677 156.212 117.472L156.212 113.202C156.212 112.459 156.815 111.856 157.57 111.856C158.31 111.856 158.915 112.462 158.915 113.202V117.475C158.915 117.882 159.246 118.214 159.654 118.214C159.858 118.212 160.043 118.13 160.177 117.996C160.311 117.862 160.393 117.677 160.393 117.472L160.393 115.292C160.393 114.55 160.996 113.947 161.751 113.947C162.491 113.947 163.096 114.552 163.096 115.292L163.096 117.483C163.097 117.486 163.096 117.485 163.096 117.485L163.096 117.487C163.096 117.489 163.096 117.489 163.096 117.489C163.096 117.491 163.096 117.491 163.096 117.491L163.097 117.492C163.098 117.493 163.097 117.494 163.097 117.494C163.108 117.893 163.436 118.213 163.836 118.212C164.244 118.212 164.575 117.881 164.575 117.473L164.575 117.383C164.575 117.024 164.715 116.685 164.969 116.431C165.223 116.177 165.56 116.037 165.932 116.037C166.674 116.039 167.275 116.642 167.278 117.348L166.89 125.563C166.811 127.216 166.123 128.774 164.951 129.945C163.697 131.2 162.03 131.891 160.255 131.891Z" fill="#DADADA"/>
<path d="M159.594 109.371C160.517 106.927 159.926 104.157 158.086 102.317C155.493 99.7237 151.272 99.7237 148.679 102.317C146.839 104.157 146.248 106.927 147.169 109.372C147.208 109.474 147.267 109.562 147.339 109.634C147.537 109.832 147.843 109.908 148.123 109.803C148.504 109.658 148.697 109.231 148.553 108.85C147.835 106.946 148.294 104.792 149.724 103.362C151.741 101.345 155.024 101.345 157.041 103.362C158.471 104.792 158.93 106.946 158.212 108.85C158.066 109.231 158.259 109.66 158.641 109.802C159.024 109.946 159.45 109.754 159.594 109.371Z" fill="#DADADA"/>
</g>
<path fill-rule="evenodd" clip-rule="evenodd" d="M131.701 67.7539H117.841C113.551 67.7539 109.854 71.231 109.854 75.5227V97.8414C109.854 102.375 113.31 105.989 117.841 105.989H134.485C138.776 105.989 142.254 102.135 142.254 97.8414V78.7456L131.701 67.7539Z" stroke="#DADADA" stroke-width="2" stroke-linecap="round" stroke-linejoin="round"/>
<path d="M131.154 67.7295V73.7899C131.154 76.7482 133.548 79.1482 136.504 79.1545C139.248 79.1607 142.054 79.1628 142.244 79.1503" stroke="#DADADA" stroke-width="2" stroke-linecap="round" stroke-linejoin="round"/>
<path d="M130.758 94.4118H119.515" stroke="#DADADA" stroke-width="2" stroke-linecap="round" stroke-linejoin="round"/>
<path d="M126.505 84.0949H119.514" stroke="#DADADA" stroke-width="2" stroke-linecap="round" stroke-linejoin="round"/>
<defs>
<clipPath id="clip0">
<rect width="32.5208" height="32.5208" fill="white" transform="translate(155.996 95) rotate(45)"/>
</clipPath>
</defs>
</svg>
