<svg width="18" height="12" viewBox="0 0 18 12" fill="none" xmlns="http://www.w3.org/2000/svg">
<path opacity="0.4" d="M5.20248 7.19032L1.50325 7.51747C0.673083 7.51747 -1.98053e-08 6.83783 -4.4233e-08 5.99957C-6.86607e-08 5.16131 0.673083 4.48167 1.50325 4.48167L5.20248 4.80882C5.85375 4.80882 6.38174 5.34196 6.38174 5.99957C6.38174 6.65828 5.85375 7.19032 5.20248 7.19032Z" fill="#4489FE"/>
<path d="M17.6256 7.13017C17.5678 7.18855 17.3518 7.43529 17.1489 7.64017C15.9653 8.92345 12.8748 11.0219 11.2581 11.664C11.0126 11.7665 10.3919 11.9846 10.0592 12C9.74173 12 9.43846 11.9262 9.14938 11.7808C8.78829 11.577 8.50029 11.2554 8.34102 10.8764C8.23957 10.6143 8.0803 9.8267 8.0803 9.81238C7.92212 8.95209 7.83594 7.55315 7.83594 6.00661C7.83594 4.53498 7.92212 3.19332 8.05193 2.31871C8.06612 2.30329 8.22539 1.32624 8.39884 0.991375C8.71629 0.378928 9.33701 3.73268e-06 10.0014 3.69638e-06L10.0592 3.69322e-06C10.4923 0.0143231 11.4021 0.39435 11.4021 0.407568C12.9326 1.04976 15.95 3.04682 17.1631 4.37415C17.1631 4.37415 17.5056 4.71563 17.654 4.92822C17.8853 5.23444 18.0009 5.61337 18.0009 5.99229C18.0009 6.41528 17.8711 6.80852 17.6256 7.13017Z" fill="#4489FE"/>
</svg>
