<svg width="12" height="18" viewBox="0 0 12 18" fill="none" xmlns="http://www.w3.org/2000/svg">
<path opacity="0.4" d="M7.19043 12.7975L7.51758 16.4967C7.51758 17.3269 6.83794 18 5.99968 18C5.16142 18 4.48178 17.3269 4.48178 16.4967L4.80893 12.7975C4.80893 12.1463 5.34207 11.6183 5.99968 11.6183C6.65839 11.6183 7.19043 12.1463 7.19043 12.7975Z" fill="#4489FE"/>
<path d="M7.13016 0.375288C7.18854 0.433106 7.43529 0.649104 7.64017 0.85201C8.92344 2.03563 11.0218 5.12614 11.664 6.74285C11.7665 6.9883 11.9846 7.60902 12 7.94174C12 8.25919 11.9262 8.56246 11.7808 8.85155C11.577 9.21264 11.2554 9.50063 10.8764 9.6599C10.6143 9.76136 9.82669 9.92063 9.81237 9.92063C8.95208 10.0788 7.55315 10.165 6.00661 10.165C4.53497 10.165 3.19332 10.0788 2.31871 9.94899C2.30329 9.93481 1.32623 9.77554 0.991371 9.60208C0.378924 9.28463 1.14824e-07 8.66391 1.65644e-07 7.99956L1.70067e-07 7.94174C0.0143196 7.50866 0.394347 6.59885 0.407564 6.59885C1.04975 5.06832 3.04682 2.0509 4.37415 0.837828C4.37415 0.837828 4.71562 0.495287 4.92822 0.346925C5.23444 0.115655 5.61337 2.03294e-05 5.99229 2.03681e-05C6.41528 2.04112e-05 6.80852 0.129837 7.13016 0.375288Z" fill="#4489FE"/>
</svg>
