<svg width="18" height="12" viewBox="0 0 18 12" fill="none" xmlns="http://www.w3.org/2000/svg">
<path opacity="0.4" d="M12.7975 4.80968L16.4967 4.48253C17.3269 4.48253 18 5.16217 18 6.00043C18 6.83869 17.3269 7.51833 16.4967 7.51833L12.7975 7.19118C12.1463 7.19118 11.6183 6.65804 11.6183 6.00043C11.6183 5.34172 12.1463 4.80968 12.7975 4.80968Z" fill="#4489FE"/>
<path d="M0.374364 4.86984C0.432181 4.81146 0.648179 4.56471 0.851085 4.35983C2.03471 3.07656 5.12521 0.978153 6.74192 0.335965C6.98737 0.233523 7.60809 0.0154212 7.94082 -7.28859e-08C8.25827 -6.24787e-08 8.56154 0.073802 8.85062 0.219203C9.21171 0.422985 9.49971 0.74463 9.65898 1.12355C9.76043 1.38572 9.9197 2.17331 9.9197 2.18763C10.0779 3.04792 10.1641 4.44685 10.1641 5.99339C10.1641 7.46503 10.0779 8.80668 9.94806 9.68129C9.93388 9.69671 9.77461 10.6738 9.60116 11.0086C9.28371 11.6211 8.66299 12 7.99863 12L7.94082 12C7.50773 11.9857 6.59792 11.6057 6.59792 11.5924C5.0674 10.9502 2.04998 8.95318 0.836903 7.62585C0.836903 7.62585 0.494362 7.28438 0.346 7.07178C0.11473 6.76556 -0.000904455 6.38663 -0.000904433 6.00771C-0.000904409 5.58473 0.128913 5.19148 0.374364 4.86984Z" fill="#4489FE"/>
</svg>
