<svg width="38" height="24" viewBox="0 0 38 24" fill="none" xmlns="http://www.w3.org/2000/svg">
<path d="M30.3994 10.1C30.3994 10 30.416 9.9 30.416 9.8C30.416 4.38333 26.1147 0 20.8088 0C16.9808 0 13.6926 2.28333 12.1481 5.58333C11.4755 5.24167 10.7199 5.04167 9.92277 5.04167C7.47321 5.04167 5.43054 6.86667 5.04027 9.25C2.1008 10.2667 0 13.0917 0 16.4167C0 20.6 3.32973 24 7.4317 24H15.9429V17.3333H11.9405L18.6 10.3583L25.2595 17.325H21.2571V23.9917H30.416C34.1692 23.9917 37.2 20.8667 37.2 17.0417C37.2 13.2167 34.1526 10.1083 30.3994 10.1Z" fill="#4489FE"/>
</svg>
