<svg width="22" height="22" viewBox="0 0 22 22" fill="none" xmlns="http://www.w3.org/2000/svg">
<path fill-rule="evenodd" clip-rule="evenodd" d="M6.57967 0.166646L15.4305 0.166646C19.2547 0.166645 21.833 2.6269 21.833 6.29831L21.833 15.6908C21.833 19.3633 19.2547 21.8333 15.4305 21.8333L6.57967 21.8333C2.74467 21.8333 0.16634 19.3633 0.166339 15.6908L0.166339 6.29831C0.166338 2.6269 2.74467 0.166647 6.57967 0.166646ZM8.54051 11.8125L15.4197 11.8125C15.8747 11.8125 16.2322 11.4441 16.2322 11C16.2322 10.545 15.8747 10.1875 15.4197 10.1875L8.54051 10.1875L11.2272 7.51165C11.3788 7.35998 11.4655 7.14331 11.4655 6.93748C11.4655 6.73273 11.3788 6.52581 11.2272 6.36331C10.913 6.04915 10.393 6.04915 10.0788 6.36331L5.99467 10.4258C5.69134 10.7291 5.69134 11.2708 5.99467 11.5741L10.0788 15.6366C10.393 15.9508 10.913 15.9508 11.2272 15.6366C11.5413 15.3116 11.5413 14.8025 11.2272 14.4775L8.54051 11.8125Z" fill="#4489FE"/>
</svg>
