<svg width="14" height="16" viewBox="0 0 14 16" fill="none" xmlns="http://www.w3.org/2000/svg">
<path fill-rule="evenodd" clip-rule="evenodd" d="M8.95468 0.508925C8.92238 0.503162 8.88914 0.500154 8.85519 0.500154C8.82124 0.500154 8.78799 0.503162 8.7557 0.508925H4.06321C2.19774 0.508925 0.625214 2.0223 0.625214 3.86818V12.0049C0.625214 13.9416 2.1143 15.3987 4.06321 15.3987H10.0542C11.9056 15.3987 13.4142 13.865 13.4142 12.0049V5.02843C13.4142 4.88319 13.358 4.74359 13.2575 4.63883L9.45795 0.681834C9.35188 0.571368 9.20536 0.508925 9.05221 0.508925H8.95468ZM8.29269 1.63333L4.06321 1.63393C2.80962 1.63393 1.75021 2.65348 1.75021 3.86818V12.0049C1.75021 13.3147 2.73021 14.2737 4.06321 14.2737H10.0542C11.2801 14.2737 12.2892 13.2478 12.2892 12.0049L12.289 5.73747L11.6316 5.73971C11.3815 5.7394 11.097 5.73887 10.7808 5.73815C9.45302 5.73535 8.36975 4.69526 8.29662 3.38571L8.29269 3.2444V1.63333ZM11.6733 4.61303L10.7832 4.61316C10.0284 4.61156 9.41769 3.99933 9.41769 3.2444V2.26404L11.6733 4.61303ZM8.72079 8.12315C9.03145 8.12315 9.28329 8.37499 9.28329 8.68565C9.28329 8.97043 9.07167 9.20577 8.79712 9.24302L8.72079 9.24815H7.44526V10.5241C7.44526 10.8347 7.19342 11.0866 6.88276 11.0866C6.59799 11.0866 6.36264 10.8749 6.3254 10.6004L6.32026 10.5241V9.24815H5.04504C4.73438 9.24815 4.48254 8.99631 4.48254 8.68565C4.48254 8.40088 4.69416 8.16554 4.96871 8.12829L5.04504 8.12315H6.32026V6.84831C6.32026 6.53765 6.5721 6.28581 6.88276 6.28581C7.16753 6.28581 7.40288 6.49743 7.44013 6.77198L7.44526 6.84831V8.12315H8.72079Z" fill="#4489FE"/>
</svg>
