<svg width="252" height="161" viewBox="0 0 252 161" fill="none" xmlns="http://www.w3.org/2000/svg">
<rect width="251.4" height="160.814" fill="#F7F7F7"/>
<rect x="14" y="16.7515" width="223.746" height="127.311" fill="white"/>
<path d="M109.011 48.335V53.0898H106.787V40.293H111.683C113.112 40.293 114.246 40.665 115.084 41.4092C115.928 42.1533 116.35 43.1377 116.35 44.3623C116.35 45.6162 115.937 46.5918 115.11 47.2891C114.29 47.9863 113.139 48.335 111.656 48.335H109.011ZM109.011 46.5508H111.683C112.474 46.5508 113.077 46.3662 113.493 45.9971C113.909 45.6221 114.117 45.083 114.117 44.3799C114.117 43.6885 113.906 43.1377 113.484 42.7275C113.062 42.3115 112.482 42.0977 111.744 42.0859H109.011V46.5508ZM123.671 53.0898C123.577 52.9082 123.495 52.6123 123.425 52.2021C122.745 52.9111 121.913 53.2656 120.929 53.2656C119.974 53.2656 119.194 52.9932 118.591 52.4482C117.987 51.9033 117.686 51.2295 117.686 50.4268C117.686 49.4131 118.061 48.6367 118.811 48.0977C119.566 47.5527 120.645 47.2803 122.045 47.2803H123.354V46.6562C123.354 46.1641 123.217 45.7715 122.941 45.4785C122.666 45.1797 122.247 45.0303 121.685 45.0303C121.198 45.0303 120.8 45.1533 120.489 45.3994C120.179 45.6396 120.023 45.9473 120.023 46.3223H117.888C117.888 45.8008 118.061 45.3145 118.406 44.8633C118.752 44.4062 119.221 44.0488 119.812 43.791C120.41 43.5332 121.075 43.4043 121.808 43.4043C122.921 43.4043 123.809 43.6855 124.471 44.248C125.133 44.8047 125.473 45.5898 125.49 46.6035V50.8926C125.49 51.748 125.61 52.4307 125.851 52.9404V53.0898H123.671ZM121.324 51.5518C121.746 51.5518 122.142 51.4492 122.511 51.2441C122.886 51.0391 123.167 50.7637 123.354 50.418V48.625H122.203C121.412 48.625 120.817 48.7627 120.419 49.0381C120.021 49.3135 119.821 49.7031 119.821 50.207C119.821 50.6172 119.956 50.9453 120.226 51.1914C120.501 51.4316 120.867 51.5518 121.324 51.5518ZM127.354 48.2646C127.354 46.7881 127.699 45.6104 128.391 44.7314C129.088 43.8467 130.011 43.4043 131.159 43.4043C132.243 43.4043 133.096 43.7822 133.717 44.5381L133.813 43.5801H135.738V52.7998C135.738 54.0479 135.349 55.0322 134.569 55.7529C133.796 56.4736 132.75 56.834 131.432 56.834C130.734 56.834 130.052 56.6875 129.384 56.3945C128.722 56.1074 128.218 55.7295 127.872 55.2607L128.883 53.9775C129.539 54.7568 130.348 55.1465 131.309 55.1465C132.018 55.1465 132.577 54.9531 132.987 54.5664C133.397 54.1855 133.603 53.623 133.603 52.8789V52.2373C132.987 52.9229 132.167 53.2656 131.142 53.2656C130.028 53.2656 129.117 52.8232 128.408 51.9385C127.705 51.0537 127.354 49.8291 127.354 48.2646ZM129.48 48.4492C129.48 49.4043 129.674 50.1572 130.061 50.708C130.453 51.2529 130.995 51.5254 131.687 51.5254C132.548 51.5254 133.187 51.1562 133.603 50.418V46.2344C133.198 45.5137 132.565 45.1533 131.704 45.1533C131.001 45.1533 130.453 45.4316 130.061 45.9883C129.674 46.5449 129.48 47.3652 129.48 48.4492ZM142.128 53.2656C140.774 53.2656 139.676 52.8408 138.832 51.9912C137.994 51.1357 137.575 49.999 137.575 48.5811V48.3174C137.575 47.3682 137.757 46.5215 138.12 45.7773C138.489 45.0273 139.005 44.4443 139.667 44.0283C140.329 43.6123 141.067 43.4043 141.882 43.4043C143.177 43.4043 144.176 43.8174 144.879 44.6436C145.588 45.4697 145.942 46.6387 145.942 48.1504V49.0117H139.729C139.793 49.7969 140.054 50.418 140.511 50.875C140.974 51.332 141.554 51.5605 142.251 51.5605C143.229 51.5605 144.026 51.165 144.642 50.374L145.793 51.4727C145.412 52.041 144.902 52.4834 144.264 52.7998C143.631 53.1104 142.919 53.2656 142.128 53.2656ZM141.873 45.1182C141.287 45.1182 140.812 45.3232 140.449 45.7334C140.092 46.1436 139.863 46.7148 139.764 47.4473H143.833V47.2891C143.786 46.5742 143.596 46.0352 143.262 45.6719C142.928 45.3027 142.465 45.1182 141.873 45.1182Z" fill="#CFCFCF"/>
<g clip-path="url(#clip0)">
<path d="M168.368 125.631L168.756 117.382C168.756 115.827 167.491 114.559 165.921 114.559C165.423 114.559 164.956 114.688 164.55 114.918C164.367 113.537 163.18 112.469 161.74 112.469C161.243 112.47 160.776 112.598 160.369 112.825C160.184 111.446 158.998 110.377 157.559 110.378C157.071 110.378 156.614 110.501 156.213 110.72L156.213 107.015C156.213 105.46 154.947 104.192 153.377 104.192C151.821 104.191 150.554 105.458 150.554 107.015L150.554 121.248L145.671 117.69C144.367 116.712 142.516 116.843 141.363 117.996C140.499 118.86 140.499 120.267 141.363 121.132L151.219 130.987C152.755 132.523 154.796 133.368 156.968 133.368L160.256 133.368C162.425 133.369 164.464 132.524 165.998 130.99C167.43 129.558 168.271 127.655 168.368 125.631ZM160.256 131.89L156.968 131.89C155.191 131.89 153.521 131.198 152.264 129.942L142.409 120.086C142.12 119.798 142.12 119.329 142.409 119.041C143.044 118.405 144.065 118.333 144.793 118.879L150.858 123.297C151.083 123.461 151.38 123.484 151.629 123.359C151.875 123.234 152.032 122.978 152.032 122.7L152.032 107.015C152.032 106.273 152.636 105.669 153.39 105.668C153.761 105.669 154.098 105.82 154.341 106.063C154.585 106.307 154.735 106.643 154.735 107.015L154.735 117.474C154.735 117.882 155.067 118.213 155.474 118.213C155.678 118.212 155.863 118.13 155.997 117.996C156.131 117.862 156.213 117.677 156.213 117.472L156.213 113.201C156.213 112.459 156.816 111.856 157.571 111.856C158.311 111.856 158.916 112.461 158.916 113.201V117.474C158.916 117.882 159.248 118.213 159.655 118.213C159.859 118.212 160.044 118.13 160.178 117.996C160.312 117.862 160.394 117.677 160.394 117.472L160.394 115.292C160.394 114.55 160.998 113.947 161.752 113.947C162.492 113.947 163.097 114.552 163.097 115.292L163.097 117.483C163.099 117.486 163.097 117.485 163.097 117.485L163.097 117.487C163.097 117.489 163.097 117.489 163.097 117.489C163.097 117.491 163.097 117.491 163.097 117.491L163.098 117.492C163.1 117.493 163.098 117.494 163.098 117.494C163.109 117.893 163.437 118.213 163.837 118.212C164.245 118.212 164.576 117.881 164.576 117.473L164.576 117.383C164.576 117.024 164.717 116.685 164.971 116.431C165.225 116.177 165.561 116.037 165.933 116.037C166.675 116.039 167.276 116.642 167.28 117.348L166.892 125.562C166.812 127.216 166.124 128.773 164.953 129.945C163.698 131.199 162.031 131.89 160.256 131.89Z" fill="#DADADA"/>
<path d="M159.595 109.371C160.518 106.926 159.926 104.156 158.086 102.317C155.493 99.7235 151.272 99.7235 148.679 102.317C146.839 104.156 146.248 106.926 147.17 109.372C147.208 109.474 147.267 109.561 147.339 109.634C147.538 109.832 147.843 109.907 148.123 109.803C148.505 109.658 148.697 109.231 148.554 108.85C147.836 106.946 148.295 104.792 149.724 103.362C151.742 101.345 155.024 101.345 157.041 103.362C158.471 104.792 158.93 106.946 158.212 108.85C158.067 109.231 158.259 109.66 158.642 109.802C159.024 109.946 159.45 109.754 159.595 109.371Z" fill="#DADADA"/>
</g>
<path fill-rule="evenodd" clip-rule="evenodd" d="M131.701 67.7538H117.841C113.551 67.7538 109.854 71.2309 109.854 75.5226V97.8413C109.854 102.375 113.31 105.989 117.841 105.989H134.485C138.776 105.989 142.254 102.135 142.254 97.8413V78.7455L131.701 67.7538Z" stroke="#DADADA" stroke-width="2" stroke-linecap="round" stroke-linejoin="round"/>
<path d="M131.154 67.7295V73.7899C131.154 76.7482 133.548 79.1482 136.504 79.1545C139.248 79.1607 142.054 79.1628 142.244 79.1503" stroke="#DADADA" stroke-width="2" stroke-linecap="round" stroke-linejoin="round"/>
<path d="M130.757 94.412H119.514" stroke="#DADADA" stroke-width="2" stroke-linecap="round" stroke-linejoin="round"/>
<path d="M126.505 84.0947H119.514" stroke="#DADADA" stroke-width="2" stroke-linecap="round" stroke-linejoin="round"/>
<defs>
<clipPath id="clip0">
<rect width="32.5208" height="32.5208" fill="white" transform="translate(155.996 95) rotate(45)"/>
</clipPath>
</defs>
</svg>
