<svg width="252" height="161" viewBox="0 0 252 161" fill="none" xmlns="http://www.w3.org/2000/svg">
<rect width="251.4" height="160.814" fill="#F7F7F7"/>
<rect x="14" y="16.7515" width="223.746" height="127.311" fill="white"/>
<path d="M85.6582 50.1104H80.7012L79.6641 53.0898H77.3525L82.1865 40.293H84.1816L89.0244 53.0898H86.7041L85.6582 50.1104ZM81.3252 48.3174H85.0342L83.1797 43.0088L81.3252 48.3174ZM89.877 48.2646C89.877 46.7998 90.2168 45.625 90.8965 44.7402C91.5762 43.8496 92.4873 43.4043 93.6299 43.4043C94.6377 43.4043 95.4521 43.7559 96.0732 44.459V39.5898H98.209V53.0898H96.2754L96.1699 52.1055C95.5312 52.8789 94.6787 53.2656 93.6123 53.2656C92.499 53.2656 91.5967 52.8174 90.9053 51.9209C90.2197 51.0244 89.877 49.8057 89.877 48.2646ZM92.0127 48.4492C92.0127 49.416 92.1973 50.1719 92.5664 50.7168C92.9414 51.2559 93.4717 51.5254 94.1572 51.5254C95.0303 51.5254 95.6689 51.1357 96.0732 50.3564V46.2959C95.6807 45.5342 95.0479 45.1533 94.1748 45.1533C93.4834 45.1533 92.9502 45.4287 92.5752 45.9795C92.2002 46.5244 92.0127 47.3477 92.0127 48.4492ZM100.037 48.2646C100.037 46.7998 100.377 45.625 101.057 44.7402C101.736 43.8496 102.647 43.4043 103.79 43.4043C104.798 43.4043 105.612 43.7559 106.233 44.459V39.5898H108.369V53.0898H106.436L106.33 52.1055C105.691 52.8789 104.839 53.2656 103.772 53.2656C102.659 53.2656 101.757 52.8174 101.065 51.9209C100.38 51.0244 100.037 49.8057 100.037 48.2646ZM102.173 48.4492C102.173 49.416 102.357 50.1719 102.727 50.7168C103.102 51.2559 103.632 51.5254 104.317 51.5254C105.19 51.5254 105.829 51.1357 106.233 50.3564V46.2959C105.841 45.5342 105.208 45.1533 104.335 45.1533C103.644 45.1533 103.11 45.4287 102.735 45.9795C102.36 46.5244 102.173 47.3477 102.173 48.4492ZM121.975 49.7939C121.975 49.2314 121.775 48.7979 121.377 48.4932C120.984 48.1885 120.272 47.8809 119.241 47.5703C118.21 47.2598 117.39 46.9141 116.78 46.5332C115.614 45.8008 115.031 44.8457 115.031 43.668C115.031 42.6367 115.45 41.7871 116.288 41.1191C117.132 40.4512 118.225 40.1172 119.566 40.1172C120.457 40.1172 121.251 40.2812 121.948 40.6094C122.646 40.9375 123.193 41.4062 123.592 42.0156C123.99 42.6191 124.189 43.29 124.189 44.0283H121.975C121.975 43.3604 121.764 42.8389 121.342 42.4639C120.926 42.083 120.328 41.8926 119.549 41.8926C118.822 41.8926 118.257 42.0479 117.853 42.3584C117.454 42.6689 117.255 43.1025 117.255 43.6592C117.255 44.1279 117.472 44.5205 117.905 44.8369C118.339 45.1475 119.054 45.4521 120.05 45.751C121.046 46.0439 121.846 46.3809 122.449 46.7617C123.053 47.1367 123.495 47.5703 123.776 48.0625C124.058 48.5488 124.198 49.1201 124.198 49.7764C124.198 50.8428 123.788 51.6924 122.968 52.3252C122.153 52.9521 121.046 53.2656 119.646 53.2656C118.72 53.2656 117.867 53.0957 117.088 52.7559C116.314 52.4102 115.711 51.9355 115.277 51.332C114.85 50.7285 114.636 50.0254 114.636 49.2227H116.859C116.859 49.9492 117.1 50.5117 117.58 50.9102C118.061 51.3086 118.749 51.5078 119.646 51.5078C120.419 51.5078 120.999 51.3525 121.386 51.042C121.778 50.7256 121.975 50.3096 121.975 49.7939ZM130.131 53.2656C128.777 53.2656 127.679 52.8408 126.835 51.9912C125.997 51.1357 125.578 49.999 125.578 48.5811V48.3174C125.578 47.3682 125.76 46.5215 126.123 45.7773C126.492 45.0273 127.008 44.4443 127.67 44.0283C128.332 43.6123 129.07 43.4043 129.885 43.4043C131.18 43.4043 132.179 43.8174 132.882 44.6436C133.591 45.4697 133.945 46.6387 133.945 48.1504V49.0117H127.731C127.796 49.7969 128.057 50.418 128.514 50.875C128.977 51.332 129.557 51.5605 130.254 51.5605C131.232 51.5605 132.029 51.165 132.645 50.374L133.796 51.4727C133.415 52.041 132.905 52.4834 132.267 52.7998C131.634 53.1104 130.922 53.2656 130.131 53.2656ZM129.876 45.1182C129.29 45.1182 128.815 45.3232 128.452 45.7334C128.095 46.1436 127.866 46.7148 127.767 47.4473H131.836V47.2891C131.789 46.5742 131.599 46.0352 131.265 45.6719C130.931 45.3027 130.468 45.1182 129.876 45.1182ZM139.518 51.5605C140.051 51.5605 140.493 51.4053 140.845 51.0947C141.196 50.7842 141.384 50.4004 141.407 49.9434H143.42C143.396 50.5352 143.212 51.0889 142.866 51.6045C142.521 52.1143 142.052 52.5186 141.46 52.8174C140.868 53.1162 140.229 53.2656 139.544 53.2656C138.214 53.2656 137.159 52.835 136.38 51.9736C135.601 51.1123 135.211 49.9229 135.211 48.4053V48.1855C135.211 46.7383 135.598 45.5811 136.371 44.7139C137.145 43.8408 138.199 43.4043 139.535 43.4043C140.666 43.4043 141.586 43.7354 142.295 44.3975C143.01 45.0537 143.385 45.918 143.42 46.9902H141.407C141.384 46.4453 141.196 45.9971 140.845 45.6455C140.499 45.2939 140.057 45.1182 139.518 45.1182C138.826 45.1182 138.293 45.3701 137.918 45.874C137.543 46.3721 137.353 47.1309 137.347 48.1504V48.4932C137.347 49.5244 137.531 50.2949 137.9 50.8047C138.275 51.3086 138.814 51.5605 139.518 51.5605ZM147.709 41.2686V43.5801H149.388V45.1621H147.709V50.4707C147.709 50.834 147.779 51.0977 147.92 51.2617C148.066 51.4199 148.324 51.499 148.693 51.499C148.939 51.499 149.188 51.4697 149.44 51.4111V53.0635C148.954 53.1982 148.485 53.2656 148.034 53.2656C146.394 53.2656 145.573 52.3604 145.573 50.5498V45.1621H144.009V43.5801H145.573V41.2686H147.709ZM153.299 53.0898H151.163V43.5801H153.299V53.0898ZM151.031 41.1104C151.031 40.7822 151.134 40.5098 151.339 40.293C151.55 40.0762 151.849 39.9678 152.235 39.9678C152.622 39.9678 152.921 40.0762 153.132 40.293C153.343 40.5098 153.448 40.7822 153.448 41.1104C153.448 41.4326 153.343 41.7021 153.132 41.9189C152.921 42.1299 152.622 42.2354 152.235 42.2354C151.849 42.2354 151.55 42.1299 151.339 41.9189C151.134 41.7021 151.031 41.4326 151.031 41.1104ZM155.232 48.2471C155.232 47.3154 155.417 46.4775 155.786 45.7334C156.155 44.9834 156.674 44.4092 157.342 44.0107C158.01 43.6064 158.777 43.4043 159.645 43.4043C160.928 43.4043 161.968 43.8174 162.765 44.6436C163.567 45.4697 164.001 46.5654 164.065 47.9307L164.074 48.4316C164.074 49.3691 163.893 50.207 163.529 50.9453C163.172 51.6836 162.656 52.2549 161.982 52.6592C161.314 53.0635 160.541 53.2656 159.662 53.2656C158.32 53.2656 157.245 52.8203 156.437 51.9297C155.634 51.0332 155.232 49.8408 155.232 48.3525V48.2471ZM157.368 48.4316C157.368 49.4102 157.57 50.1777 157.975 50.7344C158.379 51.2852 158.941 51.5605 159.662 51.5605C160.383 51.5605 160.942 51.2793 161.341 50.7168C161.745 50.1543 161.947 49.3311 161.947 48.2471C161.947 47.2861 161.739 46.5244 161.323 45.9619C160.913 45.3994 160.354 45.1182 159.645 45.1182C158.947 45.1182 158.394 45.3965 157.983 45.9531C157.573 46.5039 157.368 47.3301 157.368 48.4316ZM167.862 43.5801L167.924 44.6787C168.627 43.8291 169.55 43.4043 170.692 43.4043C172.673 43.4043 173.681 44.5381 173.716 46.8057V53.0898H171.58V46.9287C171.58 46.3252 171.448 45.8799 171.185 45.5928C170.927 45.2998 170.502 45.1533 169.91 45.1533C169.049 45.1533 168.407 45.543 167.985 46.3223V53.0898H165.85V43.5801H167.862Z" fill="#C6C4C4"/>
<path d="M83.75 71.0898C83.75 69.2949 85.2051 67.8398 87 67.8398H146.203C147.998 67.8398 149.453 69.2949 149.453 71.0898V77.3286C149.453 79.1235 147.998 80.5786 146.203 80.5786H87C85.2051 80.5786 83.75 79.1235 83.75 77.3286V71.0898Z" stroke="#C6C4C4" stroke-width="1.5"/>
<path d="M154.75 71.0898C154.75 69.2949 156.205 67.8398 158 67.8398H164C165.795 67.8398 167.25 69.2949 167.25 71.0898V77.0898C167.25 78.8848 165.795 80.3398 164 80.3398H158C156.205 80.3398 154.75 78.8848 154.75 77.0898V71.0898Z" stroke="#C6C4C4" stroke-width="1.5"/>
<rect x="91.3938" y="72.9524" width="49.922" height="2.51272" rx="1.25636" fill="#C6C4C4"/>
<rect x="156.754" y="73.0898" width="8" height="2" rx="1" fill="#C6C4C4"/>
<rect x="161.754" y="70.0898" width="8" height="2" rx="1" transform="rotate(90 161.754 70.0898)" fill="#C6C4C4"/>
<g clip-path="url(#clip0)">
<path d="M141.341 119.217L141.832 108.817C141.832 106.856 140.236 105.258 138.256 105.258C137.629 105.258 137.04 105.42 136.529 105.71C136.298 103.969 134.801 102.622 132.985 102.622C132.359 102.624 131.77 102.786 131.258 103.072C131.024 101.334 129.529 99.9854 127.714 99.9867C127.1 99.9867 126.523 100.142 126.018 100.418L126.018 95.7473C126.018 93.7865 124.422 92.188 122.443 92.188C120.481 92.1867 118.884 93.7839 118.884 95.7473L118.884 113.69L112.727 109.205C111.084 107.972 108.75 108.137 107.296 109.591C106.206 110.681 106.206 112.454 107.296 113.544L119.722 125.97C121.658 127.905 124.231 128.971 126.97 128.971L131.115 128.971C133.85 128.973 136.421 127.907 138.354 125.973C140.159 124.168 141.22 121.768 141.341 119.217ZM131.115 127.108L126.97 127.108C124.729 127.108 122.623 126.236 121.039 124.652L108.614 112.226C108.25 111.862 108.25 111.272 108.614 110.908C109.415 110.107 110.703 110.016 111.62 110.704L119.267 116.274C119.55 116.481 119.925 116.51 120.238 116.352C120.549 116.194 120.747 115.872 120.747 115.522L120.747 95.7473C120.747 94.8117 121.509 94.05 122.459 94.0487C122.927 94.05 123.351 94.2398 123.658 94.5468C123.965 94.8539 124.155 95.2782 124.155 95.7473L124.155 108.933C124.155 109.447 124.573 109.865 125.086 109.865C125.343 109.864 125.577 109.76 125.745 109.591C125.914 109.422 126.018 109.189 126.018 108.931L126.018 103.546C126.018 102.611 126.779 101.85 127.73 101.85C128.663 101.85 129.426 102.613 129.426 103.546L129.426 108.933C129.426 109.447 129.844 109.865 130.358 109.865C130.615 109.864 130.848 109.76 131.017 109.591C131.185 109.422 131.289 109.189 131.289 108.931L131.289 106.182C131.289 105.246 132.05 104.486 133.001 104.486C133.934 104.486 134.697 105.249 134.697 106.182L134.697 108.944C134.699 108.948 134.697 108.946 134.697 108.946L134.697 108.949C134.697 108.951 134.697 108.951 134.697 108.951C134.697 108.954 134.697 108.954 134.697 108.954L134.698 108.955C134.7 108.957 134.698 108.958 134.698 108.958C134.712 109.461 135.125 109.865 135.63 109.863C136.144 109.863 136.562 109.446 136.562 108.932L136.562 108.818C136.562 108.365 136.738 107.938 137.059 107.618C137.379 107.298 137.803 107.121 138.272 107.121C139.208 107.124 139.966 107.884 139.97 108.774L139.481 119.13C139.38 121.215 138.513 123.178 137.036 124.656C135.455 126.237 133.353 127.108 131.115 127.108Z" fill="#C6C4C4"/>
<path d="M130.282 98.7174C131.446 95.6351 130.7 92.1429 128.381 89.8236C125.112 86.5542 119.79 86.5542 116.521 89.8236C114.202 92.1429 113.456 95.6351 114.618 98.7187C114.667 98.8465 114.74 98.9573 114.831 99.0482C115.082 99.2986 115.467 99.3934 115.82 99.2617C116.301 99.0785 116.543 98.5408 116.363 98.0598C115.457 95.6601 116.036 92.9442 117.839 91.1414C120.382 88.5981 124.52 88.5981 127.063 91.1414C128.866 92.9442 129.445 95.6601 128.539 98.0598C128.356 98.5409 128.599 99.0812 129.081 99.2603C129.563 99.4422 130.101 99.1997 130.282 98.7174Z" fill="#C6C4C4"/>
</g>
<defs>
<clipPath id="clip0">
<rect width="41" height="41" fill="white" transform="translate(125.745 80.5991) rotate(45)"/>
</clipPath>
</defs>
</svg>
