<svg width="15" height="13" viewBox="0 0 15 13" fill="none" xmlns="http://www.w3.org/2000/svg">
<path d="M0.901452 7.56397C0.962828 7.57404 1.02494 7.57868 1.08709 7.57787L11.6693 7.57787L11.4385 7.68632C11.213 7.79421 11.0078 7.94103 10.8322 8.12016L7.86465 11.119C7.47382 11.4961 7.40815 12.1026 7.70903 12.5561C8.05921 13.0394 8.73076 13.1443 9.20902 12.7904C9.24766 12.7618 9.28438 12.7306 9.31889 12.6971L14.6851 7.27418C15.1045 6.85086 15.1048 6.16415 14.6859 5.74035C14.6857 5.74008 14.6854 5.73977 14.6851 5.7395L9.31889 0.316597C8.89919 -0.106355 8.21966 -0.105406 7.80109 0.318733C7.76816 0.352117 7.7374 0.387637 7.70903 0.425055C7.40815 0.87858 7.47382 1.4851 7.86465 1.86212L10.8268 4.86641C10.9843 5.02571 11.1653 5.15928 11.3634 5.26229L11.6854 5.4087L1.14615 5.40871C0.597891 5.38813 0.116877 5.77516 0.0138792 6.31975C-0.0810018 6.91102 0.316367 7.46805 0.901452 7.56397Z" fill="#969696"/>
</svg>
