<svg width="13" height="15" viewBox="0 0 13 15" fill="none" xmlns="http://www.w3.org/2000/svg">
<path d="M7.56397 14.0984C7.57403 14.037 7.57867 13.9749 7.57786 13.9128L7.57786 3.33058L7.68632 3.56133C7.7942 3.78688 7.94103 3.99207 8.12015 4.16771L11.119 7.13523C11.496 7.52606 12.1026 7.59172 12.5561 7.29085C13.0394 6.94067 13.1443 6.26912 12.7904 5.79086C12.7618 5.75222 12.7306 5.7155 12.6971 5.68098L7.27418 0.31477C6.85085 -0.104599 6.16414 -0.104968 5.74034 0.313932C5.74007 0.3142 5.73977 0.314502 5.7395 0.31477L0.316593 5.68098C-0.10636 6.10069 -0.105411 6.78022 0.318728 7.19878C0.352112 7.23172 0.387632 7.26247 0.42505 7.29085C0.878575 7.59172 1.48509 7.52606 1.86212 7.13523L4.86641 4.17308C5.02571 4.01561 5.15928 3.83457 5.26228 3.63646L5.4087 3.31448L5.4087 13.8537C5.38813 14.402 5.77515 14.883 6.31975 14.986C6.91101 15.0809 7.46805 14.6835 7.56397 14.0984Z" fill="#212121"/>
</svg>
