<svg width="14" height="14" viewBox="0 0 14 14" fill="none" xmlns="http://www.w3.org/2000/svg">
<path d="M2.3981 1.15723L2.39811 1.15725L7.00007 5.75934L11.6022 1.15725C11.9452 0.814256 12.4999 0.81425 12.8429 1.15723C13.1861 1.50023 13.1861 2.055 12.8429 2.398C12.8429 2.39801 12.8429 2.39801 12.8429 2.39802L8.24097 7.00009L12.8429 11.6022C12.8429 11.6022 12.8429 11.6022 12.8429 11.6022C13.1861 11.9452 13.1861 12.4999 12.8429 12.8429L2.3981 1.15723ZM2.3981 1.15723C2.05497 0.814271 1.50038 0.814241 1.15737 1.15723H2.3981ZM5.75932 7.00009L1.15737 2.39802C1.15737 2.39801 1.15736 2.39801 1.15736 2.398C0.814215 2.055 0.814215 1.50025 1.15736 1.15725L5.75932 7.00009ZM5.75932 7.00009L1.15737 11.6022C0.814226 11.9451 0.814209 12.4999 1.15732 12.8429C1.3283 13.014 1.55324 13.1 1.77773 13.1C2.00225 13.1 2.22703 13.014 2.39811 12.8429L2.3274 12.7722L2.39811 12.8429L7.00007 8.24084L11.6022 12.8429C11.7733 13.014 11.998 13.1 12.2225 13.1C12.4471 13.1 12.6718 13.014 12.8429 12.8429L5.75932 7.00009Z" fill="#212121" stroke="#212121" stroke-width="0.2"/>
</svg>
