<svg width="20" height="16" viewBox="0 0 20 16" fill="none" xmlns="http://www.w3.org/2000/svg">
<path fill-rule="evenodd" clip-rule="evenodd" d="M10.2644 0.671043L10.002 0.666626C6.20615 0.666626 2.78532 3.34612 0.889335 7.73031C0.814883 7.90247 0.814883 8.09745 0.889335 8.26961L1.02071 8.56535C2.89268 12.6687 6.12765 15.209 9.73597 15.3289L9.99833 15.3333C13.7942 15.3333 17.215 12.6538 19.111 8.26961C19.1864 8.09528 19.1854 7.89765 19.1083 7.72408L18.9806 7.43679C17.1041 3.3258 13.8677 0.790803 10.2644 0.671043ZM10.0084 2.03193L10.2274 2.03665L10.4722 2.04938C13.4029 2.2569 16.0983 4.43003 17.7267 7.99914L17.7182 8.02117C16.049 11.667 13.2607 13.8531 10.2375 13.9628L10.0038 13.9664L9.76816 13.9632L9.52403 13.9505C6.68429 13.7494 4.06598 11.6982 2.42769 8.32969L2.27264 7.99914L2.41617 7.69397C4.14371 4.12535 6.96733 2.03271 10.0084 2.03193ZM9.99967 4.4373C8.0193 4.4373 6.41459 6.032 6.41459 8.00015C6.41459 9.96755 8.01948 11.5621 9.99967 11.5621C11.98 11.5621 13.5857 9.96745 13.5857 8.00015C13.5857 6.03211 11.9802 4.4373 9.99967 4.4373ZM9.99967 5.80342C11.2208 5.80342 12.2107 6.78666 12.2107 8.00014C12.2107 9.21282 11.2207 10.196 9.99967 10.196C8.77887 10.196 7.78959 9.21306 7.78959 8.00014C7.78959 6.78642 8.77876 5.80342 9.99967 5.80342Z" fill="#200E32"/>
</svg>
