<svg width="22" height="22" viewBox="0 0 22 22" fill="none" xmlns="http://www.w3.org/2000/svg">
<path fill-rule="evenodd" clip-rule="evenodd" d="M15.4203 21.8333L6.56949 21.8333C2.74533 21.8333 0.166992 19.3731 0.166992 15.7017L0.166992 6.30916C0.166992 2.63666 2.74533 0.166656 6.56949 0.166656L15.4203 0.166656C19.2553 0.166656 21.8337 2.63666 21.8337 6.30916L21.8337 15.7017C21.8337 19.3731 19.2553 21.8333 15.4203 21.8333ZM13.4595 10.1875H6.58033C6.12533 10.1875 5.76783 10.5558 5.76783 11C5.76783 11.455 6.12533 11.8125 6.58033 11.8125H13.4595L10.7728 14.4883C10.6212 14.64 10.5345 14.8567 10.5345 15.0625C10.5345 15.2672 10.6212 15.4742 10.7728 15.6367C11.087 15.9508 11.607 15.9508 11.9212 15.6367L16.0053 11.5742C16.3087 11.2708 16.3087 10.7292 16.0053 10.4258L11.9212 6.36332C11.607 6.04916 11.087 6.04916 10.7728 6.36332C10.4587 6.68832 10.4587 7.19749 10.7728 7.52249L13.4595 10.1875Z" fill="#4489FE"/>
</svg>
