<svg width="20" height="20" viewBox="0 0 20 20" fill="none" xmlns="http://www.w3.org/2000/svg">
<path fill-rule="evenodd" clip-rule="evenodd" d="M13.572 1.66699H16.2942C17.4204 1.66699 18.3341 2.58857 18.3341 3.72548V6.47041C18.3341 7.60645 17.4204 8.5289 16.2942 8.5289H13.572C12.4449 8.5289 11.5312 7.60645 11.5312 6.47041V3.72548C11.5312 2.58857 12.4449 1.66699 13.572 1.66699Z" stroke="#969696" stroke-width="1.5" stroke-linecap="round" stroke-linejoin="round"/>
<path fill-rule="evenodd" clip-rule="evenodd" d="M3.70776 1.66699H6.42907C7.55619 1.66699 8.46984 2.58857 8.46984 3.72548V6.47041C8.46984 7.60645 7.55619 8.5289 6.42907 8.5289H3.70776C2.58064 8.5289 1.66699 7.60645 1.66699 6.47041V3.72548C1.66699 2.58857 2.58064 1.66699 3.70776 1.66699Z" stroke="#969696" stroke-width="1.5" stroke-linecap="round" stroke-linejoin="round"/>
<path fill-rule="evenodd" clip-rule="evenodd" d="M3.70776 11.4717H6.42907C7.55619 11.4717 8.46984 12.3933 8.46984 13.531V16.2751C8.46984 17.412 7.55619 18.3336 6.42907 18.3336H3.70776C2.58064 18.3336 1.66699 17.412 1.66699 16.2751V13.531C1.66699 12.3933 2.58064 11.4717 3.70776 11.4717Z" stroke="#969696" stroke-width="1.5" stroke-linecap="round" stroke-linejoin="round"/>
<path fill-rule="evenodd" clip-rule="evenodd" d="M13.572 11.4717H16.2942C17.4204 11.4717 18.3341 12.3933 18.3341 13.531V16.2751C18.3341 17.412 17.4204 18.3336 16.2942 18.3336H13.572C12.4449 18.3336 11.5312 17.412 11.5312 16.2751V13.531C11.5312 12.3933 12.4449 11.4717 13.572 11.4717Z" stroke="#969696" stroke-width="1.5" stroke-linecap="round" stroke-linejoin="round"/>
</svg>
