<?xml version="1.0" encoding="utf-8"?>
<!-- Generator: Adobe Illustrator 23.1.0, SVG Export Plug-In . SVG Version: 6.00 Build 0)  -->
<svg version="1.1" id="Layer_1" xmlns="http://www.w3.org/2000/svg" xmlns:xlink="http://www.w3.org/1999/xlink" x="0px" y="0px"
	 viewBox="0 0 37.3 36" style="enable-background:new 0 0 37.3 36;" xml:space="preserve">
<style type="text/css">
	.st0{fill:#3F51B5;}
	.st1{fill:#448AFF;}
</style>
<path class="st0" d="M31.8,10.3c-2.4-4.5-9-7.6-11.8-8.6c-0.6-0.2-1.1,0.2-1.1,0.8v13.4c0,0.3,0.2,0.6,0.4,0.7l12,7.2
	c0.5,0.3,1.1,0,1.3-0.5C33.3,20.9,34.2,14.8,31.8,10.3z M29.5,20.5l-8-5.3c-0.2-0.2-0.4-0.4-0.4-0.7V6.2c0-0.7,0.7-1.1,1.3-0.8
	c2.4,1.3,6.5,3.5,7.9,6.7c1.2,2.6,0.6,5.7,0.5,7.6C30.9,20.5,30.1,20.9,29.5,20.5z"/>
<path class="st1" d="M14.7,2.6L5.1,8.2C4.9,8.3,4.8,8.5,4.8,8.8L4.5,19.9c0,0.3,0.2,0.5,0.5,0.6c0.6,0.1,1.2,0.1,2.1-0.9
	c0.1-0.1,0.1-0.3,0.1-0.4l0.1-6.8c0-0.5,0.6-0.8,1-0.5l5.6,3.5c0.3,0.2,0.7,0.1,0.9-0.2l0.8-1c0.2-0.3,0.1-0.7-0.2-0.9L9.2,9.1
	C9.1,9,9.1,8.7,9.3,8.6l6.1-3.7c0.2-0.1,0.3-0.3,0.3-0.6V3C15.6,2.6,15.1,2.3,14.7,2.6z"/>
<path class="st0" d="M16.9,20.6c-6.6,0.5-10.7,4.4-12,5.8c-0.2,0.3-0.2,0.7,0.1,0.9l12.3,7.1c0.2,0.1,0.4,0.1,0.6,0l12.3-7.6
	c0.3-0.2,0.4-0.7,0-0.9C28.3,24.4,22.6,20.6,16.9,20.6C17,20.6,17,20.6,16.9,20.6z M9.3,27c-0.4-0.2-0.4-0.7-0.1-0.9
	c1.5-1.1,4.9-3.3,7.9-3.3s7,2,8.8,3c0.4,0.2,0.4,0.7,0,1L18,31.3c-0.2,0.1-0.4,0.1-0.5,0L9.3,27z"/>
</svg>
