<svg width="16" height="18" viewBox="0 0 16 18" fill="none" xmlns="http://www.w3.org/2000/svg">
<path fill-rule="evenodd" clip-rule="evenodd" d="M5.43813 12.6584H9.92658C10.2649 12.6584 10.5454 12.3751 10.5454 12.0334C10.5454 11.6918 10.2649 11.4168 9.92658 11.4168H5.43813C5.09985 11.4168 4.81932 11.6918 4.81932 12.0334C4.81932 12.3751 5.09985 12.6584 5.43813 12.6584ZM8.22691 7.2501H5.43813C5.09985 7.2501 4.81932 7.53343 4.81932 7.8751C4.81932 8.21676 5.09985 8.49177 5.43813 8.49177H8.22691C8.56519 8.49177 8.84572 8.21676 8.84572 7.8751C8.84572 7.53343 8.56519 7.2501 8.22691 7.2501ZM14.1151 6.52142C14.3091 6.51919 14.5203 6.51675 14.7121 6.51675C14.9184 6.51675 15.0834 6.68341 15.0834 6.89175V13.5917C15.0834 15.6584 13.425 17.3334 11.3788 17.3334H4.81114C2.66592 17.3334 0.916748 15.5751 0.916748 13.4084V4.42508C0.916748 2.35842 2.58341 0.666748 4.63787 0.666748H9.04381C9.25833 0.666748 9.42335 0.841748 9.42335 1.05008V3.73341C9.42335 5.25842 10.6692 6.50841 12.1791 6.51675C12.5318 6.51675 12.8427 6.51938 13.1148 6.52169C13.3265 6.52349 13.5147 6.52508 13.6808 6.52508C13.7982 6.52508 13.9505 6.52332 14.1151 6.52142ZM14.3427 5.30508C13.6645 5.30758 12.865 5.30508 12.2899 5.29925C11.3774 5.29925 10.6257 4.54008 10.6257 3.61841V1.42175C10.6257 1.06258 11.0572 0.884247 11.3039 1.14341C11.7505 1.61239 12.3642 2.25705 12.9751 2.89875C13.5843 3.5387 14.1907 4.1757 14.6257 4.63258C14.8666 4.88508 14.6901 5.30425 14.3427 5.30508Z" fill="#757575"/>
</svg>
