<svg width="20" height="20" viewBox="0 0 20 20" fill="none" xmlns="http://www.w3.org/2000/svg">
<path fill-rule="evenodd" clip-rule="evenodd" d="M7.43788 13.6584H11.9263C12.2646 13.6584 12.5451 13.3751 12.5451 13.0334C12.5451 12.6918 12.2646 12.4168 11.9263 12.4168H7.43788C7.0996 12.4168 6.81907 12.6918 6.81907 13.0334C6.81907 13.3751 7.0996 13.6584 7.43788 13.6584ZM10.2267 8.2501H7.43789C7.0996 8.2501 6.81907 8.53343 6.81907 8.8751C6.81907 9.21676 7.0996 9.49177 7.43789 9.49177H10.2267C10.5649 9.49177 10.8455 9.21676 10.8455 8.8751C10.8455 8.53343 10.5649 8.2501 10.2267 8.2501ZM16.1149 7.52142C16.3088 7.51919 16.52 7.51675 16.7119 7.51675C16.9182 7.51675 17.0832 7.68341 17.0832 7.89175V14.5917C17.0832 16.6584 15.4248 18.3334 13.3786 18.3334H6.81089C4.66568 18.3334 2.9165 16.5751 2.9165 14.4084V5.42508C2.9165 3.35842 4.58317 1.66675 6.63763 1.66675H11.0436C11.2581 1.66675 11.4231 1.84175 11.4231 2.05008V4.73341C11.4231 6.25842 12.669 7.50841 14.1789 7.51675C14.5316 7.51675 14.8425 7.51938 15.1146 7.52169C15.3263 7.52349 15.5145 7.52508 15.6805 7.52508C15.798 7.52508 15.9502 7.52332 16.1149 7.52142ZM16.3425 6.30508C15.6642 6.30758 14.8647 6.30508 14.2897 6.29925C13.3771 6.29925 12.6255 5.54008 12.6255 4.61841V2.42175C12.6255 2.06258 13.057 1.88425 13.3037 2.14341C13.7502 2.61239 14.3639 3.25705 14.9748 3.89875C15.584 4.5387 16.1904 5.1757 16.6255 5.63258C16.8664 5.88508 16.6898 6.30425 16.3425 6.30508Z" fill="#4489FE"/>
</svg>
