<svg width="20" height="20" viewBox="0 0 20 20" fill="none" xmlns="http://www.w3.org/2000/svg">
<path fill-rule="evenodd" clip-rule="evenodd" d="M6.18549 16.5166C6.53716 16.5166 6.82299 16.8024 6.82299 17.1541C6.82299 17.5058 6.53716 17.7908 6.18549 17.7908C5.83383 17.7908 5.54883 17.5058 5.54883 17.1541C5.54883 16.8024 5.83383 16.5166 6.18549 16.5166Z" stroke="#969696" stroke-width="1.5" stroke-linecap="round" stroke-linejoin="round"/>
<path fill-rule="evenodd" clip-rule="evenodd" d="M15.5623 16.5166C15.914 16.5166 16.1998 16.8024 16.1998 17.1541C16.1998 17.5058 15.914 17.7908 15.5623 17.7908C15.2106 17.7908 14.9248 17.5058 14.9248 17.1541C14.9248 16.8024 15.2106 16.5166 15.5623 16.5166Z" stroke="#969696" stroke-width="1.5" stroke-linecap="round" stroke-linejoin="round"/>
<path d="M2.29199 2.70801L4.02533 3.00801L4.82783 12.5688C4.89283 13.348 5.54366 13.9463 6.32533 13.9463H15.4187C16.1653 13.9463 16.7987 13.398 16.9062 12.658L17.697 7.19301C17.7945 6.51884 17.272 5.91551 16.5912 5.91551H4.30366" stroke="#969696" stroke-width="1.5" stroke-linecap="round" stroke-linejoin="round"/>
<path d="M11.7715 8.99577H14.0823" stroke="#969696" stroke-width="1.5" stroke-linecap="round" stroke-linejoin="round"/>
</svg>
