<svg width="18" height="18" viewBox="0 0 18 18" fill="none" xmlns="http://www.w3.org/2000/svg">
<path fill-rule="evenodd" clip-rule="evenodd" d="M12.5862 1.29199H5.37866C2.86616 1.29199 1.29199 3.07033 1.29199 5.58699V12.3778C1.29199 14.8945 2.85949 16.6728 5.37866 16.6728H12.5853C15.1053 16.6728 16.6728 14.8945 16.6728 12.3778V5.58699C16.6728 3.07033 15.1053 1.29199 12.5862 1.29199Z" stroke="#969696" stroke-width="1.5" stroke-linecap="round" stroke-linejoin="round"/>
<path fill-rule="evenodd" clip-rule="evenodd" d="M7.9194 6.32154C7.9194 7.1707 7.23023 7.85987 6.38107 7.85987C5.53273 7.85987 4.84357 7.1707 4.84357 6.32154C4.84357 5.47237 5.53273 4.7832 6.38107 4.7832C7.23023 4.7832 7.9194 5.47237 7.9194 6.32154Z" stroke="#969696" stroke-width="1.5" stroke-linecap="round" stroke-linejoin="round"/>
<path d="M16.6723 11.459C15.8439 10.7382 15.1231 9.87069 14.1731 9.29819C13.2214 8.72569 12.1989 9.07902 11.5389 9.93319C10.9014 10.759 10.5031 11.8699 9.54059 12.3907C8.35476 13.0332 7.65809 11.9974 6.66892 11.5824C5.56476 11.1199 4.72642 11.9515 4.08142 12.7507C3.43559 13.5507 2.78142 14.3424 2.12476 15.134" stroke="#969696" stroke-width="1.5" stroke-linecap="round" stroke-linejoin="round"/>
</svg>
