<svg width="16" height="18" viewBox="0 0 16 18" fill="none" xmlns="http://www.w3.org/2000/svg">
<path fill-rule="evenodd" clip-rule="evenodd" d="M15.0016 10.3167C15.2997 10.4751 15.5296 10.7251 15.6915 10.9751C16.0066 11.4917 15.981 12.1251 15.6744 12.6834L15.0783 13.6834C14.7632 14.2167 14.1755 14.5501 13.5709 14.5501C13.2728 14.5501 12.9407 14.4667 12.6682 14.3001C12.4467 14.1584 12.1912 14.1084 11.9187 14.1084C11.0756 14.1084 10.3688 14.8001 10.3432 15.6251C10.3432 16.5834 9.55971 17.3334 8.58033 17.3334H7.42211C6.43422 17.3334 5.65072 16.5834 5.65072 15.6251C5.63369 14.8001 4.92683 14.1084 4.08372 14.1084C3.80268 14.1084 3.54719 14.1584 3.33428 14.3001C3.06176 14.4667 2.72111 14.5501 2.43155 14.5501C1.81838 14.5501 1.23075 14.2167 0.91565 13.6834L0.328024 12.6834C0.0129208 12.1417 -0.00411183 11.4917 0.310992 10.9751C0.447253 10.7251 0.702742 10.4751 0.992297 10.3167C1.23075 10.2001 1.38405 10.0084 1.52882 9.78341C1.95464 9.06675 1.69915 8.12508 0.975264 7.70008C0.132149 7.22508 -0.140373 6.16675 0.345057 5.34175L0.91565 4.35841C1.4096 3.53341 2.46562 3.24175 3.31725 3.72508C4.05817 4.12508 5.02051 3.85841 5.45484 3.15008C5.5911 2.91675 5.66775 2.66675 5.65072 2.41675C5.63369 2.09175 5.72737 1.78341 5.88918 1.53341C6.20428 1.01675 6.77487 0.683415 7.39656 0.666748H8.59736C9.22757 0.666748 9.79816 1.01675 10.1133 1.53341C10.2666 1.78341 10.3688 2.09175 10.3432 2.41675C10.3262 2.66675 10.4028 2.91675 10.5391 3.15008C10.9734 3.85841 11.9358 4.12508 12.6852 3.72508C13.5283 3.24175 14.5928 3.53341 15.0783 4.35841L15.6489 5.34175C16.1428 6.16675 15.8703 7.22508 15.0187 7.70008C14.2948 8.12508 14.0393 9.06675 14.4736 9.78341C14.6099 10.0084 14.7632 10.2001 15.0016 10.3167ZM5.59116 9.00843C5.59116 10.3168 6.67273 11.3584 8.00979 11.3584C9.34686 11.3584 10.4029 10.3168 10.4029 9.00843C10.4029 7.70009 9.34686 6.65009 8.00979 6.65009C6.67273 6.65009 5.59116 7.70009 5.59116 9.00843Z" fill="#757575"/>
</svg>
