<svg width="19" height="20" viewBox="0 0 19 20" fill="none" xmlns="http://www.w3.org/2000/svg">
<path fill-rule="evenodd" clip-rule="evenodd" d="M17.0723 5.98821L16.5017 4.99813C16.0191 4.16037 14.9493 3.87136 14.1104 4.35206V4.35206C13.7111 4.5873 13.2346 4.65404 12.786 4.53756C12.3374 4.42108 11.9536 4.13096 11.7191 3.73116C11.5683 3.47703 11.4873 3.18759 11.4842 2.8921V2.8921C11.4978 2.41835 11.3191 1.95927 10.9887 1.61943C10.6584 1.27959 10.2045 1.08794 9.73058 1.08813H8.58107C8.11675 1.08813 7.67157 1.27315 7.34403 1.60226C7.01649 1.93138 6.83361 2.37744 6.83584 2.84176V2.84176C6.82208 3.80041 6.04097 4.57031 5.08222 4.57021C4.78673 4.56714 4.49728 4.4861 4.24316 4.33527V4.33527C3.40426 3.85458 2.33455 4.14359 1.85186 4.98135L1.23935 5.98821C0.757241 6.82493 1.04232 7.89395 1.87703 8.37952V8.37952C2.41961 8.69277 2.75385 9.27169 2.75385 9.8982C2.75385 10.5247 2.41961 11.1036 1.87703 11.4169V11.4169C1.04338 11.8992 0.75799 12.9656 1.23935 13.7998V13.7998L1.8183 14.7983C2.04446 15.2064 2.42392 15.5075 2.87271 15.6351C3.3215 15.7626 3.80262 15.7061 4.2096 15.4779V15.4779C4.60969 15.2445 5.08645 15.1805 5.53393 15.3002C5.9814 15.42 6.3625 15.7135 6.59252 16.1156C6.74334 16.3697 6.82438 16.6592 6.82745 16.9546V16.9546C6.82745 17.9231 7.61257 18.7083 8.58107 18.7083H9.73058C10.6958 18.7083 11.4796 17.9283 11.4842 16.963V16.963C11.482 16.4973 11.666 16.0499 11.9953 15.7206C12.3247 15.3912 12.772 15.2072 13.2378 15.2094C13.5326 15.2173 13.8209 15.298 14.0769 15.4444V15.4444C14.9136 15.9265 15.9826 15.6414 16.4682 14.8067V14.8067L17.0723 13.7998C17.3061 13.3984 17.3703 12.9204 17.2506 12.4716C17.1309 12.0227 16.8373 11.6401 16.4346 11.4085V11.4085C16.032 11.1769 15.7383 10.7943 15.6186 10.3454C15.4989 9.89659 15.5631 9.41856 15.7969 9.0172C15.949 8.75171 16.1691 8.53158 16.4346 8.37952V8.37952C17.2643 7.89422 17.5487 6.83143 17.0723 5.9966V5.9966V5.98821Z" stroke="#969696" stroke-width="1.5" stroke-linecap="round" stroke-linejoin="round"/>
<ellipse cx="9.15964" cy="9.89816" rx="2.41648" ry="2.41648" stroke="#969696" stroke-width="1.5" stroke-linecap="round" stroke-linejoin="round"/>
</svg>
