<svg width="34" height="34" viewBox="0 0 34 34" fill="none" xmlns="http://www.w3.org/2000/svg">
<path fill-rule="evenodd" clip-rule="evenodd" d="M17.4621 9.5H16.5358C16.0141 9.5 15.514 9.70366 15.146 10.0659C14.8198 10.387 14.6203 10.8104 14.5818 11.2609L14.5754 11.4064C14.5683 11.8801 14.1856 12.2498 13.7158 12.2497C13.6092 12.2486 13.4986 12.2243 13.3967 12.1785L13.2968 12.1263C12.3737 11.6076 11.1735 11.9253 10.6319 12.8462L10.1449 13.6302C9.62712 14.5104 9.88251 15.6161 10.7184 16.1856L10.8346 16.2586C11.1211 16.4213 11.2849 16.6992 11.2849 17C11.2849 17.2766 11.1462 17.5353 10.9148 17.6921L10.8359 17.7406C9.96989 18.2309 9.62868 19.3131 10.064 20.2133L10.1276 20.3331L10.6056 21.1418C10.854 21.5812 11.2798 21.9123 11.7833 22.0525C12.2296 22.1767 12.706 22.1424 13.1282 21.9563L13.2617 21.891C13.4865 21.7637 13.7186 21.7332 13.9365 21.7903C14.1544 21.8474 14.34 21.9875 14.452 22.1793C14.5138 22.2814 14.55 22.3867 14.563 22.4957L14.5693 22.6065C14.5682 23.6369 15.4491 24.5 16.5358 24.5H17.4623C18.4884 24.5 19.34 23.7277 19.4233 22.7311L19.4293 22.6023C19.4288 22.3534 19.5187 22.1393 19.6795 21.9817C19.8404 21.824 20.059 21.736 20.2865 21.737C20.3911 21.7399 20.506 21.7655 20.6125 21.8122L20.7145 21.8637C21.5758 22.3508 22.7044 22.1006 23.2856 21.2817L23.3602 21.1678L23.8549 20.3603C24.1213 19.9125 24.1934 19.3863 24.0589 18.8922C23.9397 18.4543 23.6665 18.0723 23.2883 17.8131L23.163 17.7345C22.9454 17.6112 22.802 17.4281 22.7435 17.2133C22.685 16.9985 22.7164 16.7697 22.8306 16.5776C22.8939 16.4694 22.978 16.3794 23.0788 16.3105L23.2718 16.1917C24.0532 15.6719 24.3459 14.6489 23.9346 13.7888L23.8919 13.7051C23.8827 13.6832 23.872 13.6619 23.8599 13.6413L23.4 12.8595C22.8883 11.9894 21.782 11.6517 20.8595 12.0766L20.7366 12.1388C20.5162 12.2652 20.2834 12.2971 20.0643 12.2414C19.8451 12.1856 19.6576 12.0468 19.5431 11.8554C19.4843 11.7584 19.4481 11.6531 19.4351 11.544L19.4288 11.4332C19.4449 10.9623 19.2444 10.4576 18.8737 10.084C18.503 9.71046 17.9938 9.49979 17.4621 9.5ZM16.5358 10.5858H17.4623C17.6948 10.5857 17.9172 10.6777 18.0791 10.8409C18.2409 11.004 18.3285 11.2244 18.3218 11.4519L18.3317 11.6409C18.3652 11.9299 18.4518 12.1813 18.5886 12.4071C18.8505 12.8447 19.2817 13.1641 19.7857 13.2923C20.2898 13.4205 20.8251 13.3471 21.2738 13.0881L21.3511 13.0495L21.4344 13.0168C21.8007 12.8964 22.2323 13.0488 22.4398 13.4016L22.8784 14.1479L22.8879 14.169L22.9409 14.2691C23.1184 14.6413 22.9701 15.112 22.586 15.3321L22.4655 15.4065C22.2098 15.5805 22.0137 15.7904 21.871 16.0345C21.6103 16.4728 21.5382 16.999 21.6727 17.493C21.7949 17.9422 22.0787 18.3311 22.4692 18.5896L22.6734 18.7161C22.8175 18.8155 22.9363 18.9816 22.9881 19.172C23.0466 19.3868 23.0152 19.6156 22.901 19.8077L22.4177 20.5968L22.3633 20.68C22.1397 20.9944 21.6985 21.1111 21.3266 20.9511L21.0896 20.8325C20.8253 20.716 20.5667 20.6583 20.304 20.6514C19.7685 20.6488 19.2659 20.8513 18.8959 21.2139C18.5259 21.5764 18.3191 22.0688 18.3216 22.5815L18.3174 22.6634C18.2824 23.0767 17.9103 23.4142 17.4623 23.4142H16.5358C16.0929 23.4142 15.7282 23.0858 15.6816 22.664L15.6664 22.3988C15.6329 22.1099 15.5464 21.8585 15.4095 21.6326C15.1552 21.1969 14.7265 20.8734 14.223 20.7414C13.7196 20.6094 13.1832 20.6799 12.7331 20.9372L12.6516 20.9764C12.4893 21.0473 12.2812 21.0623 12.0863 21.008C11.8664 20.9468 11.6805 20.8022 11.5697 20.6063L11.0977 19.8087L11.0555 19.7287C10.8767 19.358 11.0252 18.8872 11.4098 18.6692L11.5267 18.5972C12.0756 18.2255 12.3932 17.6334 12.3932 17C12.3932 16.3572 12.0665 15.76 11.528 15.4032L11.3324 15.2819C10.9869 15.046 10.8753 14.5628 11.0985 14.1834L11.5854 13.3994C11.8287 12.9861 12.3529 12.8474 12.7639 13.0781L12.9082 13.1527C13.1777 13.2747 13.4419 13.3328 13.71 13.3355C14.7498 13.3356 15.6001 12.5532 15.6776 11.5561L15.6877 11.3275C15.7029 11.1556 15.7897 10.9715 15.9315 10.8319C16.0915 10.6744 16.309 10.5858 16.5358 10.5858ZM17.0024 14.5489C15.6207 14.5489 14.5006 15.6463 14.5006 17C14.5006 18.3537 15.6207 19.4511 17.0024 19.4511C18.3841 19.4511 19.5042 18.3537 19.5042 17C19.5042 15.6463 18.3841 14.5489 17.0024 14.5489ZM17.0024 15.6347C17.772 15.6347 18.396 16.2459 18.396 17C18.396 17.754 17.772 18.3653 17.0024 18.3653C16.2328 18.3653 15.6088 17.754 15.6088 17C15.6088 16.2459 16.2328 15.6347 17.0024 15.6347Z" fill="#4489FE"/>
<rect x="0.5" y="0.5" width="33" height="33" rx="3.5" stroke="#E5E9EE"/>
</svg>
