<svg width="20" height="16" viewBox="0 0 20 16" fill="none" xmlns="http://www.w3.org/2000/svg">
<path d="M14.6621 7.10983C15.9974 7.10983 17.0806 6.0274 17.0806 4.69212C17.0806 3.35684 15.9974 2.27441 14.6621 2.27441" stroke="#969696" stroke-width="1.5" stroke-linecap="round" stroke-linejoin="round"/>
<path d="M15.7744 9.7373C16.1732 9.7648 16.5696 9.82133 16.96 9.90918C17.5023 10.0154 18.1547 10.2377 18.3869 10.7242C18.5351 11.0359 18.5351 11.3988 18.3869 11.7112C18.1555 12.1978 17.5023 12.4193 16.96 12.5308" stroke="#969696" stroke-width="1.5" stroke-linecap="round" stroke-linejoin="round"/>
<path d="M5.24171 7.10983C3.90644 7.10983 2.82324 6.0274 2.82324 4.69212C2.82324 3.35684 3.90644 2.27441 5.24171 2.27441" stroke="#969696" stroke-width="1.5" stroke-linecap="round" stroke-linejoin="round"/>
<path d="M4.12971 9.7373C3.73096 9.7648 3.3345 9.82133 2.94415 9.90918C2.40179 10.0154 1.74943 10.2377 1.51797 10.7242C1.36901 11.0359 1.36901 11.3988 1.51797 11.7112C1.74866 12.1978 2.40179 12.4193 2.94415 12.5308" stroke="#969696" stroke-width="1.5" stroke-linecap="round" stroke-linejoin="round"/>
<path fill-rule="evenodd" clip-rule="evenodd" d="M9.94789 10.2578C12.6536 10.2578 14.9651 10.6673 14.9651 12.3058C14.9651 13.9436 12.6689 14.3683 9.94789 14.3683C7.24143 14.3683 4.93066 13.9589 4.93066 12.3203C4.93066 10.6818 7.22691 10.2578 9.94789 10.2578Z" stroke="#969696" stroke-width="1.5" stroke-linecap="round" stroke-linejoin="round"/>
<path fill-rule="evenodd" clip-rule="evenodd" d="M9.94763 7.92044C8.16319 7.92044 6.73242 6.48967 6.73242 4.70447C6.73242 2.92002 8.16319 1.48926 9.94763 1.48926C11.7321 1.48926 13.1628 2.92002 13.1628 4.70447C13.1628 6.48967 11.7321 7.92044 9.94763 7.92044Z" stroke="#969696" stroke-width="1.5" stroke-linecap="round" stroke-linejoin="round"/>
</svg>
