<svg width="18" height="18" viewBox="0 0 18 18" fill="none" xmlns="http://www.w3.org/2000/svg">
<path fill-rule="evenodd" clip-rule="evenodd" d="M2.78317 0.666748H5.59984C6.77484 0.666748 7.7165 1.62508 7.7165 2.80091V5.64175C7.7165 6.82508 6.77484 7.77508 5.59984 7.77508H2.78317C1.6165 7.77508 0.666504 6.82508 0.666504 5.64175V2.80091C0.666504 1.62508 1.6165 0.666748 2.78317 0.666748ZM2.78317 10.2248H5.59984C6.77484 10.2248 7.7165 11.1757 7.7165 12.359V15.1998C7.7165 16.3748 6.77484 17.3332 5.59984 17.3332H2.78317C1.6165 17.3332 0.666504 16.3748 0.666504 15.1998V12.359C0.666504 11.1757 1.6165 10.2248 2.78317 10.2248ZM15.2166 0.666748H12.3999C11.2249 0.666748 10.2833 1.62508 10.2833 2.80091V5.64175C10.2833 6.82508 11.2249 7.77508 12.3999 7.77508H15.2166C16.3833 7.77508 17.3333 6.82508 17.3333 5.64175V2.80091C17.3333 1.62508 16.3833 0.666748 15.2166 0.666748ZM12.3999 10.2248H15.2166C16.3833 10.2248 17.3333 11.1757 17.3333 12.359V15.1998C17.3333 16.3748 16.3833 17.3332 15.2166 17.3332H12.3999C11.2249 17.3332 10.2833 16.3748 10.2833 15.1998V12.359C10.2833 11.1757 11.2249 10.2248 12.3999 10.2248Z" fill="#757575"/>
</svg>
