<svg width="14" height="10" viewBox="0 0 14 10" fill="none" xmlns="http://www.w3.org/2000/svg">
<path opacity="0.4" d="M9.84814 4.10727L12.6226 3.86191C13.2452 3.86191 13.75 4.37164 13.75 5.00033C13.75 5.62903 13.2452 6.13876 12.6226 6.13876L9.84814 5.89339C9.35969 5.89339 8.96369 5.49354 8.96369 5.00033C8.96369 4.5063 9.35969 4.10727 9.84814 4.10727Z" fill="#4489FE"/>
<path d="M0.531749 4.15238C0.575112 4.10859 0.73711 3.92354 0.88929 3.76987C1.77701 2.80742 4.09489 1.23361 5.30742 0.751973C5.49151 0.675142 5.95705 0.511566 6.20659 0.5C6.44468 0.5 6.67213 0.555352 6.88894 0.664402C7.15976 0.817239 7.37576 1.05847 7.49521 1.34267C7.5713 1.53929 7.69075 2.12998 7.69075 2.14072C7.80939 2.78594 7.87402 3.83514 7.87402 4.99504C7.87402 6.09877 7.80939 7.10501 7.71203 7.76097C7.70139 7.77254 7.58194 8.50532 7.45185 8.75647C7.21376 9.21581 6.74822 9.5 6.24995 9.5L6.20659 9.5C5.88177 9.48926 5.19942 9.20424 5.19942 9.19433C4.05152 8.71269 1.78846 7.21489 0.878653 6.21939C0.878653 6.21939 0.621747 5.96328 0.510476 5.80384C0.337024 5.57417 0.250297 5.28998 0.250297 5.00578C0.250297 4.68854 0.34766 4.39361 0.531749 4.15238Z" fill="#4489FE"/>
</svg>
